<svg xmlns="http://www.w3.org/2000/svg" viewBox="0 0 900 1900" role="img" aria-labelledby="title desc">
  <title id="title">Wizard Block of Truth placeholder screen 2</title>
  <desc id="desc">Placeholder for round entry screenshot.</desc>
  <defs>
    <linearGradient id="bg" x1="0" y1="0" x2="1" y2="1">
      <stop offset="0%" stop-color="#1B2A7A" />
      <stop offset="100%" stop-color="#3A5AF5" />
    </linearGradient>
  </defs>
  <rect width="900" height="1900" rx="90" fill="url(#bg)" />
  <rect x="62" y="72" width="776" height="1756" rx="66" fill="#F4F6FF" />
  <rect x="112" y="152" width="290" height="34" rx="17" fill="#CAD5FF" />
  <rect x="112" y="220" width="676" height="140" rx="30" fill="#E0E8FF" />
  <rect x="112" y="402" width="676" height="470" rx="42" fill="#FFFFFF" stroke="#D4DEFF" stroke-width="8" />
  <rect x="154" y="454" width="200" height="30" rx="15" fill="#A5B7FF" />
  <rect x="154" y="520" width="280" height="80" rx="26" fill="#ECF1FF" />
  <rect x="470" y="520" width="280" height="80" rx="26" fill="#ECF1FF" />
  <rect x="154" y="630" width="280" height="80" rx="26" fill="#ECF1FF" />
  <rect x="470" y="630" width="280" height="80" rx="26" fill="#ECF1FF" />
  <rect x="154" y="740" width="596" height="80" rx="26" fill="#ECF1FF" />
  <rect x="112" y="920" width="676" height="220" rx="36" fill="#FFFFFF" stroke="#D4DEFF" stroke-width="8" />
  <rect x="152" y="972" width="220" height="32" rx="16" fill="#A5B7FF" />
  <rect x="152" y="1030" width="550" height="24" rx="12" fill="#C8D4FF" />
  <rect x="112" y="1490" width="676" height="126" rx="56" fill="#3F5FFF" />
  <rect x="294" y="1538" width="312" height="30" rx="15" fill="#E8EDFF" />
</svg>
