<svg xmlns="http://www.w3.org/2000/svg" viewBox="0 0 900 1900" role="img" aria-labelledby="title desc">
  <title id="title">Wizard Block of Truth placeholder screen 1</title>
  <desc id="desc">Placeholder for game list screenshot.</desc>
  <defs>
    <linearGradient id="bg" x1="0" y1="0" x2="1" y2="1">
      <stop offset="0%" stop-color="#2E49CC" />
      <stop offset="100%" stop-color="#4968F2" />
    </linearGradient>
  </defs>
  <rect width="900" height="1900" rx="90" fill="url(#bg)" />
  <rect x="62" y="72" width="776" height="1756" rx="66" fill="#F8FAFF" />
  <rect x="112" y="160" width="370" height="36" rx="18" fill="#CBD5FF" />
  <rect x="112" y="232" width="550" height="70" rx="30" fill="#E3E9FF" />
  <rect x="112" y="370" width="676" height="218" rx="36" fill="#FFFFFF" stroke="#D3DDFF" stroke-width="8" />
  <rect x="144" y="420" width="280" height="32" rx="16" fill="#A3B4FF" />
  <rect x="144" y="472" width="480" height="24" rx="12" fill="#C7D2FF" />
  <rect x="112" y="630" width="676" height="218" rx="36" fill="#FFFFFF" stroke="#D3DDFF" stroke-width="8" />
  <rect x="144" y="680" width="240" height="32" rx="16" fill="#A3B4FF" />
  <rect x="144" y="732" width="432" height="24" rx="12" fill="#C7D2FF" />
  <rect x="112" y="890" width="676" height="218" rx="36" fill="#FFFFFF" stroke="#D3DDFF" stroke-width="8" />
  <rect x="144" y="940" width="320" height="32" rx="16" fill="#A3B4FF" />
  <rect x="144" y="992" width="500" height="24" rx="12" fill="#C7D2FF" />
  <rect x="112" y="1512" width="676" height="110" rx="48" fill="#3F5FFF" />
  <rect x="324" y="1552" width="252" height="32" rx="16" fill="#EBEFFF" />
</svg>
