<svg xmlns="http://www.w3.org/2000/svg" viewBox="0 0 900 1900" role="img" aria-labelledby="title desc">
  <title id="title">Wizard Block of Truth placeholder screen 3</title>
  <desc id="desc">Placeholder for multiplayer lobby screenshot.</desc>
  <defs>
    <linearGradient id="bg" x1="0" y1="0" x2="1" y2="1">
      <stop offset="0%" stop-color="#27337A" />
      <stop offset="100%" stop-color="#4D69F9" />
    </linearGradient>
  </defs>
  <rect width="900" height="1900" rx="90" fill="url(#bg)" />
  <rect x="62" y="72" width="776" height="1756" rx="66" fill="#F5F7FF" />
  <rect x="112" y="172" width="450" height="38" rx="19" fill="#CAD4FF" />
  <rect x="112" y="252" width="676" height="286" rx="42" fill="#FFFFFF" stroke="#D3DDFF" stroke-width="8" />
  <rect x="164" y="322" width="572" height="146" rx="32" fill="#3F5FFF" />
  <rect x="264" y="380" width="372" height="36" rx="18" fill="#EAF0FF" />
  <rect x="112" y="590" width="676" height="768" rx="42" fill="#FFFFFF" stroke="#D3DDFF" stroke-width="8" />
  <rect x="154" y="652" width="260" height="30" rx="15" fill="#A7B8FF" />
  <rect x="154" y="718" width="592" height="94" rx="26" fill="#EDF1FF" />
  <rect x="154" y="842" width="592" height="94" rx="26" fill="#EDF1FF" />
  <rect x="154" y="966" width="592" height="94" rx="26" fill="#EDF1FF" />
  <rect x="154" y="1090" width="592" height="94" rx="26" fill="#EDF1FF" />
  <rect x="112" y="1468" width="676" height="130" rx="58" fill="#3F5FFF" />
  <rect x="300" y="1517" width="300" height="32" rx="16" fill="#E8EDFF" />
</svg>
